<svg xmlns="http://www.w3.org/2000/svg" width="931" height="932" viewBox="0 0 931 932">
  <defs>
    <style>
      .cls-1 {
        fill: #b1919f;
        fill-rule: evenodd;
      }
    </style>
  </defs>
  <path id="形状_334_1" data-name="形状 334 1" class="cls-1" d="M540.462,37a26.441,26.441,0,0,1,8.552,2.444,30.678,30.678,0,0,1,1.221,9.776c-3.77,2.379-4.19,3.527-11,3.666-2.5-3.961-3.65-4.927-3.665-12.22A22.041,22.041,0,0,0,540.462,37Zm-101.4,4.888,9.773,3.666c0.948,6.455,1.322,12.658-4.886,14.664-10.777,3.482-12.694-7.931-11-14.664A21.077,21.077,0,0,0,439.062,41.888Zm162.484,12.22h7.33c2.5,3.961,3.65,4.927,3.665,12.22C600.511,74.306,593.677,65.776,601.546,54.108Zm-101.4,3.666c5.637,0.165,6.815,1.328,11,2.444,1.051,4.219,2.148,5.358,2.444,11-4,3.863-4.837,6.38-12.217,7.332a23.927,23.927,0,0,0-4.887-2.444C491,67.258,494.01,64,500.146,57.774Zm-102.621,6.11c3.322-.009,5.616.048,7.33,1.222,7.715,2.293,7.787,9.355,4.887,15.886-10.182,6.571-19.086,3.293-18.326-12.22A30.506,30.506,0,0,0,397.525,63.885Zm166.149,9.776c9.508,0.841,12.691,4.824,12.217,15.886-2.241,1.57-2.092,2.4-4.887,3.666-3.762,3.563-7.8,1.912-12.217,0C552.744,83.477,556.36,79.557,563.674,73.661ZM459.831,78.549c6.139,0.044,7.845,1.276,12.216,2.444,2.237,4.682,3.6,7.08,3.666,14.664-1.85,1.725-2.7,3.378-4.887,4.888-9.03,7.763-19.622-1.849-19.547-12.22C454.254,84.855,456.792,81.791,459.831,78.549ZM357.209,85.881h9.774c1.57,2.241,2.4,2.092,3.665,4.888,2.429,2.635,2.527,5.593,2.443,11-2.689,2.034-2.475,3.466-6.108,4.888-2.245,1.514-6.968,1.331-11,1.223-3.035-4.574-5.534-5.788-6.109-13.443a23.857,23.857,0,0,0,2.443-4.888A22.041,22.041,0,0,0,357.209,85.881ZM627.2,90.769c5.438,1.062,8.117,2.369,9.774,7.332,5.828,8.177-3.925,13.8-12.217,13.443-3.862-4-6.378-4.838-7.33-12.221C621.743,94.3,621.922,94.739,627.2,90.769ZM522.136,94.435c6.14,0.044,7.846,1.276,12.217,2.444,2.619,4.416,4.563,6.184,4.887,13.443-2.975,3.47-5.513,6.534-8.552,9.776-14.131.572-17.751-4.156-17.1-18.331A62.228,62.228,0,0,0,522.136,94.435Zm-103.843,6.11c4.007-.142,8.777-0.288,11,1.222,3.576,1.157,4.289,2.156,6.108,4.888,2.188,2.721,2.44,5.863,2.443,11-1.541,1.66-1.668,2.161-2.443,4.888-4.716,2.8-6.668,4.725-14.66,4.888-3.47-2.976-6.533-5.515-9.774-8.554a61.245,61.245,0,0,1,1.222-13.443A30.46,30.46,0,0,0,418.293,100.545Zm-100.178,7.333a47.357,47.357,0,0,1,11,1.222c3.229,4.983,4.949,6.7,4.887,15.886-2.689,2.033-2.475,3.465-6.108,4.888-2.315,1.859-4.385,2.186-8.552,2.444-3.124-2.918-5.614-2.642-7.33-7.332-1.642-2.054-2-3.841-2.443-7.332C312.618,114.021,314.864,111.156,318.115,107.878ZM687.064,109.1a37.142,37.142,0,0,1,8.552,1.222c2.177,3.718,3.4,4.694,3.665,11-1.453,1.31-2.012,2.449-3.665,3.666-2.054,1.642-3.841,2-7.331,2.444-2.116-2.107-3.4-1.832-4.886-4.888C679.185,116.865,683.706,113.506,687.064,109.1Zm-103.843,2.444c3.774-.116,7.733-0.172,9.773,1.222,4.2,1.316,5.959,3.177,7.33,7.332,5.888,8.114-5.572,20.705-15.882,17.108-6.72-2.345-9.255-8.261-8.551-18.33,0.982-1.248.433-.335,1.221-2.444A30.537,30.537,0,0,0,583.221,111.544ZM483.043,115.21c8.554-.11,12.617,2.3,15.882,7.332,2.332,2.9,2.512,6.705,2.443,12.22-3.105,3.791-3.233,6.711-8.552,8.554-4.665,3.785-9.21,1.418-14.66,0l-6.109-7.332c-0.126-7.318,1.137-10.969,2.444-15.886Zm-100.178,6.11,8.551,1.222c2.033,2.69,3.465,2.475,4.887,6.11,11.7,12.121-4.5,22.8-18.325,22-3.436-4.392-6.576-4.588-7.33-12.22-2.154-3.483.177-7.022,1.221-11a30.5,30.5,0,0,0,6.109-4.888C380.821,122.3,381.43,122.306,382.865,121.32Zm265.105,7.332c5.637,0.165,6.815,1.328,11,2.444,1.175,2.158,1.536,2.054,2.443,4.888,10.457,13.827-21.037,26.914-21.99,6.11-1.182-2.471.295-4.805,1.222-8.554A54.453,54.453,0,0,0,647.97,128.652Zm-367.727,1.222a24.256,24.256,0,0,1,9.774,2.444c5.3,7.471,7.966,20.993-6.109,22-2.028,1.012-3.158.291-7.33,0C267.474,141.411,268.788,139.149,280.243,129.874Zm262.662,2.444c4.244-.16,9.813-0.408,12.217,1.222,4.7,1.587,5.476,4.374,8.552,7.332,0.294,5.945,1.588,8.291-1.222,12.22-1.316,4.206-3.177,5.961-7.33,7.333-2.528,2.034-5.077,2.334-9.774,2.444-5.444-4.289-10.165-4.157-11-13.443-2.153-3.483.177-7.022,1.222-11Zm-101.4,4.888c10.383-.464,17.078,1.121,19.547,8.554,2.333,2.9,2.513,6.706,2.444,12.221-3.378,3.483-6.494,7.491-9.774,11-5.735.5-9.271,1.861-13.438-1.222-5.74-1.97-6.161-5.958-9.774-9.776-0.044-6.774,1.246-9.744,2.444-14.665Zm-102.621,7.332c4.244-.16,9.813-0.408,12.217,1.222,4.7,1.587,5.476,4.374,8.552,7.332,0.862,9.431.168,16.7-8.552,19.553-4.665,3.784-9.21,1.418-14.66,0l-6.109-7.332c-0.4-5.533-1.7-8.221,1.222-12.221C333.141,148.387,335.927,147.614,338.884,144.538Zm371.392,2.444a24.263,24.263,0,0,1,9.773,2.444c4.355,6.426,4.444,24.269-11,18.331C697.569,163.339,705.379,151.678,710.276,146.982Zm-105.065,2.444c4.244-.16,9.813-0.408,12.217,1.222,3.576,1.157,4.289,2.156,6.108,4.889,8.448,9.769-2.54,28.294-17.1,23.218C590.445,173.182,597.058,157.378,605.211,149.426Zm-365.283,3.666c5.636,0.166,6.815,1.328,11,2.445,1.174,2.158,1.536,2.053,2.443,4.888,5.956,8.184-4.119,21.008-14.66,17.108-3.028-1.12-5.2-5.134-7.33-7.332l1.221-12.22A35.9,35.9,0,0,0,239.928,153.092Zm263.883,0c4.244-.16,9.813-0.408,12.217,1.223a12.323,12.323,0,0,1,8.552,8.554c4.124,5.023,1.476,11.447,0,17.108-2.919,1.9-3.573,3.572-7.33,4.888-5.189,4.266-12.554,1.5-18.325,0-2.8-4.3-5.409-5.407-6.109-12.22-1.752-2.652-.734-7.3,1.222-9.776C495.974,157.126,499.732,156.489,503.811,153.092Zm-97.734,4.889c25.056,4.032,25.985,36.716-3.666,35.438-8.185-6.531-12.526-7.574-12.216-23.218,3.708-3.806,7.191-7.288,11-11C404.033,158.964,404.642,158.967,406.077,157.981Zm-105.065,8.554,12.217,1.222,7.33,8.554a68.76,68.76,0,0,1-1.222,14.664l-7.33,6.11a77.132,77.132,0,0,1-13.439,0C286.4,182.255,287.531,179.01,301.012,166.535Zm370.17,0,11,2.444c2.972,5,4.837,7.238,4.887,15.886-2.918,3.125-2.641,5.616-7.33,7.332-4.665,3.785-9.21,1.419-14.66,0-2.972-5-4.837-7.238-4.887-15.886,2.917-3.125,2.641-5.615,7.33-7.332C668.459,168.145,670.243,167.377,671.182,166.535ZM568.56,168.979c6.988,0.171,9.371,2.2,14.661,3.666,4.579,7.467,5.824,10.791,4.886,22-8.607,6.952-12.125,10.631-25.655,7.333a62.324,62.324,0,0,0-7.33-8.555c-0.5-5.737-1.86-9.274,1.222-13.442C558.647,172.833,563.417,173.009,568.56,168.979Zm-102.621,4.888,12.217,1.222a123.87,123.87,0,0,0,9.773,11c0.5,5.737,1.861,9.274-1.221,13.442-2.2,8.811-9.422,12.462-20.769,12.221-2.213-1.8-5.376-2.865-8.552-3.666-3.843-6.365-6.174-9.555-6.108-20.775l4.887-8.554C458.94,176.459,463.181,176.088,465.939,173.867Zm-262.662,2.444c4.788,1.756,8,2.313,9.773,7.332,4.936,6.068-1.486,20.443-13.438,15.886-10.646-4.058-7.234-16.242-1.222-22C201.234,177.294,201.842,177.3,203.277,176.311ZM362.1,181.2c4.244-.16,9.813-0.408,12.217,1.222,6.365,1.96,7.1,5.663,11,9.776,0.5,5.737,1.86,9.274-1.222,13.443-1.823,6.807-5.532,7-9.773,11-16.56.4-17.069-4.325-24.434-12.22v-11C354,189.183,357.862,185.321,362.1,181.2Zm370.17,4.888c7.882-.314,11.475.394,13.439,6.11,2.864,3.719,1.675,5.4,1.221,11-3.776,2.513-3.574,4.228-9.773,4.888-2.471,1.182-4.8-.3-8.552-1.222-2.571-4.385-3.718-6.809-3.665-14.665A56.306,56.306,0,0,0,732.266,186.087Zm-103.843,1.222c7.316-.126,10.966,1.137,15.882,2.444,3.728,5.756,6.139,7.943,6.108,18.331-6.606,8.578-24.321,21.445-30.542,2.444-2.188-2.721-2.44-5.863-2.443-11,1.71-2.042,1.916-5.192,3.665-7.332C622.743,190.179,626.554,189.228,628.423,187.309ZM260.7,189.753c9.842-.4,15.985,1.485,18.325,8.554,2.189,2.721,2.44,5.863,2.444,11-2.807,2.96-3.811,6.178-7.33,8.554-10.335,8.772-28.578-3.145-23.212-18.331C252.565,194.883,257.423,192.83,260.7,189.753Zm268.771,0c6.37,0.336,9.621,2.3,14.66,3.666,4.245,6.535,7.347,9.086,7.33,20.775-6.883,8.929-7.855,14.886-24.434,14.664-6.674-5.1-21.021-14.491-12.217-26.884,1.871-5.52,6.206-7.3,9.774-11C527.423,190.737,528.032,190.74,529.467,189.753ZM424.4,195.863c7.6-.127,11.743,1.146,17.1,2.444,5,7.384,8.64,9.595,8.552,23.219-2.013,2.128-1.83,4.8-3.665,7.332l-8.552,6.11c-8.752.386-12.034-.485-19.547-2.444a61.9,61.9,0,0,0-7.33-9.776c-0.373-6.119-1.877-10.242,1.222-14.664C414.54,200.557,419.465,200.428,424.4,195.863Zm-263.884,4.889a41.553,41.553,0,0,1,9.774,1.222c1.174,2.158,1.535,2.053,2.443,4.888,6.3,8.657-3.619,15.034-12.217,14.664-5.579-5.452-8.528-8.339-4.887-17.108A22.069,22.069,0,0,0,160.518,200.752ZM324.224,203.2c6.771-.044,9.74,1.246,14.66,2.444a61.957,61.957,0,0,0,7.33,9.776c0.172,4.486.531,10.846-1.222,13.442-2.882,9.052-10.575,11.44-23.212,11-10.17-9.289-14.009-10.977-9.773-28.106A127.528,127.528,0,0,0,324.224,203.2Zm367.727,2.444c3.774-.116,7.733-0.172,9.773,1.222,7.219,2.121,9.9,7.566,9.773,17.108-2.806,2.961-3.81,6.178-7.33,8.554-9.647,7.979-17.517-2.416-21.99-7.332A61.229,61.229,0,0,1,683.4,211.75Zm-98.957,1.222c7.929,0.619,14.922,3.215,17.1,9.776,2.98,3.148,3.653,7.172,3.665,13.442-3.2,4.22-3.076,8.845-8.552,11-3.309,4-9.522,3.913-17.1,3.666-3.85-3.581-7.781-4.062-9.773-9.776-2.606-3.259-2.59-8.5-2.443-14.664,4.12-4.237,7.982-8.1,12.216-12.22C590.951,207.845,591.56,207.848,592.994,206.862ZM486.708,211.75c7.6-.128,11.743,1.145,17.1,2.444,4.543,5.794,15.253,16.21,7.33,26.884a15.186,15.186,0,0,1-9.773,9.777c-13.056,10.622-24.062-6.425-29.321-12.221C471.639,220.31,477.8,219.875,486.708,211.75Zm-263.884,1.222c6.139,0.044,7.846,1.276,12.217,2.444,3.34,5.158,5.926,6.9,6.108,15.886-2.809,3.533-2.583,6.684-7.33,8.554-9,8.689-27.134-3.315-21.99-17.108C213.524,218.2,219.176,215.769,222.824,212.972Zm162.484,4.888c8.8-.128,12.2,1.977,18.325,3.666,12.071,17.949,8.307,23.644-4.887,36.661-9.355.8-13.187-.378-20.768-2.444a61.919,61.919,0,0,0-7.33-9.777,65.736,65.736,0,0,1,2.443-19.552A108.979,108.979,0,0,0,385.308,217.86Zm-263.884,7.332a37.189,37.189,0,0,1,8.552,1.222c2.012,3.452,3.19,4.184,3.665,9.776-2.106,2.117-1.831,3.4-4.887,4.888-3.434,2.5-3.83,1.6-8.551,1.222a14.157,14.157,0,0,0-3.666-2.444C115.374,230.979,116.492,230.312,121.424,225.192Zm531.433,0c7.662,0.032,10.29,2.118,15.882,3.666,4.433,7.407,5.74,11.257,4.886,22-3.442,2.713-3.781,5.623-8.551,7.332-5.19,4.266-12.554,1.5-18.326,0-1.9-2.92-3.57-3.574-4.886-7.332-4.265-5.191-1.5-12.557,0-18.331C645.2,230.5,649.8,227.83,652.857,225.192Zm101.4,0,12.217,1.222c7.434,11.429,5.5,22.876-13.438,22l-6.109-7.333C746.768,230.737,749.546,230.033,754.256,225.192Zm-470.348,1.222c8.639-.116,11.188,2,17.1,3.666,5.965,10.677,8.8,25.921-4.887,31.773-15.587,6.665-26.1-7.282-25.655-22l6.108-9.776C279.087,228.239,281.788,228.427,283.908,226.414Zm263.884,2.444c19.965-.706,28.6,6.124,28.1,25.663-2.033,2.156-1.852,4.716-3.665,7.332-2.218,3.2-6.989,4.631-9.774,7.332-11.572,1.162-22.324-.742-25.655-11-2.607-3.259-2.591-8.5-2.444-14.665,1.762-2.115,1.968-4.992,3.665-7.332C540.325,233.009,544.975,231.582,547.792,228.858Zm-101.4,4.888c9.929-.209,14.242,1.835,20.769,3.666,9.643,14.3,9.363,21.169,0,35.439H469.6c8.519-5.893,20.065,3.184,24.434,6.11V275.3c-5.867-8.623,5.973-21.415,12.217-23.218,12.649-10.321,25.177,5.461,30.542,11,1.2,12.814-.762,17.458-6.109,25.662,14.045-.507,17.859,2.412,26.877,8.555v-2.444c-3.484-5.072.053-13.871,1.222-18.331l9.773-8.554c21.64-1.957,19.861,1.91,30.543,13.442,0.373,6.119,1.876,10.242-1.222,14.665-1.913,7.3-6.575,8.925-11,13.442-14.039,1.305-18.154-1.454-26.877-7.332v2.444c5.314,7.77-1.918,18.265-3.665,23.218,9.66-1.914,15.561,1.877,21.99,6.11-0.485-12.109,2.317-21.576,11-24.44,11.581-11.163,25.105,2.425,31.764,7.332,2.831,17.965,1,18.292-7.33,30.551h1.221c12.883-10.489,25.233,6.422,30.543,12.22,1.258,13.535-1.275,19.28-8.552,26.884h2.443c5.269-3.615,14.981.031,19.547,1.223,8.123,11.726,11.786,13.345,7.33,31.772a83.538,83.538,0,0,0-12.217,9.776c-11.5.62-16.454-1.232-24.433-6.11,3.5,9.432-1.313,17.36-4.887,23.219,13.815-.27,16.885,4.608,24.434,9.776v-1.222c-6.391-8.984,1.619-24.459,9.773-26.885,4.767-3.852,14.313-2.157,20.769-1.222,6.773,8.535,11.22,9.98,11,26.885-13.033,14.771-18.667,20.814-39.094,7.332v2.444c5.9,8.554-3.261,19.933-6.108,24.441h3.665c8.62-5.869,21.408,5.975,23.212,12.22,10.317,12.653-5.46,25.185-11,30.551-12.81,1.2-17.452-.762-25.655-6.111,0.422,15.4-3.021,18.769-8.552,26.885h2.444c5.07-3.485,13.866.053,18.325,1.222,7.79,11.281,11.5,13.222,7.33,30.551a83.471,83.471,0,0,0-12.217,9.776c-15.853.82-19.317-3.642-28.1-12.22-1.305-14.043,1.454-18.16,7.331-26.885h-2.444c-7.768,5.316-18.26-1.918-23.212-3.666,1.914,9.663-1.877,15.566-6.108,22,12.106-.485,21.57,2.318,24.433,11,11.16,11.584-2.424,25.112-7.33,31.772-17.96,2.832-18.287,1-30.542-7.332v1.222c10.486,12.887-6.42,25.24-12.217,30.551-15.1,1.353-19.168-2.815-28.1-9.776v1.222c4.9,5.259,1.524,16.135,0,22-3.732,2.5-5.084,5.664-9.774,7.332-5.653,4.627-15.862,1.577-21.99,0a95.2,95.2,0,0,0-9.774-12.22c-0.714-11.968.938-16.489,6.109-24.44-9.43,3.5-17.355-1.313-23.212-4.889,0.27,13.82-4.608,16.89-9.774,24.441,10.815-4.108,24.809-.494,28.1,9.776,3.851,4.768,2.157,14.317,1.222,20.775-8.532,6.775-9.977,11.223-26.877,11-14.767-13.036-20.809-18.673-7.33-39.105h-2.444c-8.551,5.906-19.927-3.262-24.433-6.11v3.666c5.463,8.263-6.208,21.326-12.217,23.218-12.65,10.321-25.178-5.461-30.542-11-1.305-14.042,1.454-18.159,7.33-26.884-13.1,4.814-21.195-2.58-28.1-7.332v2.444c7.071,10.03-4.706,23.67-11,25.662-13.507,10.982-25.193-6.333-30.542-12.22-0.374-6.119-1.877-10.242,1.222-14.664,1.912-7.3,6.574-8.926,11-13.443,14.038-1.305,18.154,1.455,26.877,7.332V613.8c-5.562-8,2.143-19.1,4.886-23.218h-3.665c-6.317,3.943-15.544-3.418-19.547-6.11,0.486,12.109-2.316,21.576-11,24.44-11.581,11.163-25.105-2.425-31.763-7.332-2.832-17.965-1-18.292,7.33-30.551h-1.222c-12.883,10.489-25.233-6.422-30.542-12.22-1.259-13.534,1.274-19.28,8.552-26.884-13.422,3.109-25.846-.448-29.321-11-4.625-5.655-1.576-15.866,0-22a83.485,83.485,0,0,0,12.217-9.776c11.965-.715,16.485.938,24.434,6.11v-1.222c-5.04-7.264,2.307-17.839,4.886-22-14.093.291-17.056-4.222-24.433-9.776,4.106,10.818.493,24.816-9.774,28.107-4.766,3.852-14.313,2.157-20.768,1.222-6.773-8.535-11.221-9.979-11-26.885,13.032-14.771,18.667-20.814,39.093-7.332v-2.444c-5.891-8.522,3.184-20.07,6.109-24.441h-3.665c-11,7.292-30.012-12.154-25.656-26.884,2.322-7.848,8.263-10.962,13.439-15.886,14.039-1.306,18.154,1.454,26.877,7.332v-1.222c-7.1-10.35,4.063-22.2,7.33-26.885h-2.443c-5.071,3.485-13.867-.053-18.326-1.222l-8.551-9.776q-0.612-7.332-1.222-14.664c2.713-9.263,17.81-22.86,29.32-14.665,7.3,1.914,8.923,6.577,13.439,11,1.3,14.043-1.454,18.16-7.33,26.885h2.443c8-5.563,19.1,2.144,23.212,4.888v-3.666c-3.942-6.319,3.417-15.549,6.109-19.552-17.992.624-35.626-11.859-26.877-31.773,2-4.561,6.94-7.163,9.773-11,17.96-2.832,18.287-1,30.542,7.332-6.984-16.444,3.669-23.835,12.217-31.773,15.1-1.353,19.169,2.815,28.1,9.776-3.376-7.211-1.859-15.725,0-23.218,3.731-2.5,5.083-5.664,9.773-7.332,5.654-4.627,15.862-1.577,21.99,0a83.5,83.5,0,0,0,9.774,12.22c0.714,11.968-.938,16.489-6.108,24.441,9.429-3.506,17.354,1.312,23.212,4.888-0.292-14.1,4.221-17.062,9.773-24.441-10.815,4.108-24.809.494-28.1-9.776-3.851-4.768-2.156-14.317-1.221-20.775C437.229,241.514,442.089,237.417,446.392,233.746Zm-263.884,3.666c8.54-.318,13.771,1.178,15.882,7.332,3.784,4.666,1.418,9.213,0,14.665-5,2.972-7.236,4.838-15.882,4.888-3.124-2.918-5.613-2.642-7.33-7.332-3.783-4.666-1.417-9.213,0-14.665A35.864,35.864,0,0,0,182.508,237.412Zm162.484,3.666a59.535,59.535,0,0,1,18.326,2.444c7.427,10.87,10.037,13.118,6.108,29.329a72.975,72.975,0,0,0-11,8.554c-5.945.555-10.312,2.009-14.66-1.222-9.657-2.431-13.772-10.594-13.439-23.218,1.8-2.213,2.864-5.377,3.665-8.554C337.333,246.381,341.939,243.717,344.992,241.078Zm368.949,3.666c4.007-.142,8.777-0.288,11,1.222,3.87,1.246,5.375,3.088,7.33,6.111,2.333,2.9,2.512,6.7,2.443,12.22-3.256,3.5-3.318,6.7-8.551,8.554-4.849,3.966-10.329,1.449-15.882,0-3.728-5.756-6.14-7.943-6.109-18.33C707.389,251.442,710.861,247.965,713.941,244.744Zm-101.4,1.222c7.2-.094,10.74,1.195,15.882,2.445a73.086,73.086,0,0,0,8.552,11c0.442,17.046-4.1,18.081-12.217,25.662-10.843,1.05-21.21,0-24.434-9.776-2.739-3.434-2.609-9.428-2.443-15.886,3.077-3.176,4.86-8.526,8.552-11C608.41,247.086,610.88,247.317,612.541,245.966Zm-366.505,3.667c6.988,0.17,9.37,2.2,14.66,3.666,3.494,5.783,6.043,8.375,6.109,18.33-6.266,8.154-6.97,13.553-21.991,13.442-5.819-4.593-11.327-4.805-12.217-14.664-2.992-4.629,1.125-10.23,2.444-14.664C238.152,254.035,243.2,251.982,246.036,249.633Zm-103.843,12.22c21.8-1.47,22.1,22.356,6.108,23.218-7.262,2.808-13.592-5.26-13.438-14.664C137.414,267.788,139.762,264.519,142.193,261.853Zm167.371,1.222,12.216,2.444c6.3,7.979,10,9.865,9.774,25.662-3.9,4.184-4.839,8.859-10.995,11-3.259,2.607-8.5,2.591-14.661,2.444-9.078-7.257-14.953-8.4-14.66-25.663,1.351-1.691,1.825-3.511,2.444-6.11a73.075,73.075,0,0,0,11-8.554C307.52,264.058,308.129,264.061,309.564,263.075Zm366.5,1.222c8.118-.046,10.186,2.055,15.882,3.666,3.6,6.076,6.1,9.158,6.108,19.552-1.978,2.045-2.808,4.038-3.665,7.333l-11,6.11c-14.2,3.647-26.322-13.078-20.769-25.663C665.274,269.305,671.115,268.012,676.069,264.3Zm101.4,0c3.547-.073,6.681-0.059,8.552,1.222,9.769,2.6,10.748,17.2,2.444,22a12.115,12.115,0,0,1-18.326-9.776c-1.012-2.029-.291-3.159,0-7.332ZM204.5,274.073l13.438,1.222c5.76,7.93,14.733,24.032-1.221,29.329-2.72,2.189-5.861,2.44-11,2.444-2.042-1.711-5.191-1.917-7.33-3.666-2.017-1.651-2.968-5.463-4.886-7.332C193.153,281.394,197.474,280.619,204.5,274.073Zm532.654,9.776,13.438,1.222c4.013,5.985,7.263,7.581,7.33,18.331-3.364,3.927-6.321,7.328-9.773,11a68.726,68.726,0,0,1-14.66-1.222l-6.109-7.332a77.375,77.375,0,0,1,0-13.443A104.042,104.042,0,0,0,737.153,283.849Zm-102.622,1.222c7.6-.127,11.743,1.145,17.1,2.444a73.044,73.044,0,0,0,8.552,11c0.5,7.475-.248,9.86-1.222,17.108-7.976,6.3-9.862,10-25.655,9.776-4.183-3.9-8.857-4.84-10.995-11-2.607-3.259-2.591-8.5-2.444-14.664,2.723-3.27,3.907-8.485,7.33-11C629.522,287.033,632.424,286.833,634.531,285.071Zm-530.21,1.222h7.33c2.033,2.691,3.464,2.476,4.886,6.11,1.174,1.733,1.193,4,1.222,7.333-1.849,1.724-2.7,3.378-4.887,4.888-2.053,1.642-3.84,2-7.33,2.444-2.685-2.552-4.506-2.1-6.108-6.11-1.808-2.329-2.26-4.056-1.222-6.11C99.224,289.183,101.273,289.464,104.321,286.293Zm393.382,0c3.485,9.424-.577,18.259-3.665,24.441,8.171-2.936,15.335,1.562,20.768,4.888-0.182-11.318,3.3-15.467,7.33-22H517.25C510.547,297.461,501.93,289.222,497.7,286.293Zm-232.12,1.222,15.882,1.222a123.741,123.741,0,0,0,9.773,11c1.68,18.225-4.606,27.624-25.655,26.884-4.183-3.9-8.856-4.84-11-11-4.4-5.349-1.526-13.665,0-19.552A73.082,73.082,0,0,0,265.583,287.515Zm129.5,4.888c3.647,10.021-1.325,17.634-3.665,24.441,9.028-.458,14.042.848,20.769,4.888-0.182-11.318,3.3-15.467,7.33-22h-2.443C409.361,304.877,399.39,295.322,395.081,292.4Zm-229.676,6.111c6.958-.092,9.93,1.183,14.66,2.444,14.512,22.376-7.528,35.337-24.434,18.33a68.76,68.76,0,0,1,1.222-14.664A70.519,70.519,0,0,0,165.405,298.514ZM699.281,303.4c4.6,0,8.4.47,11,2.444a12.326,12.326,0,0,1,8.552,8.554c2.332,2.9,2.512,6.706,2.443,12.22-3.51,4.416-3.735,8.881-9.774,11-3.074,2.812-8.454,2.637-14.66,2.444-4.783-4.113-7.9-7.77-12.217-12.22C684.24,310.315,689.933,310.542,699.281,303.4Zm103.843,0c11.166,0.971,14.836,8.408,12.217,19.552-4.982,3.229-6.7,4.95-15.882,4.888-2.033-2.69-3.465-2.475-4.887-6.11-1.858-2.315-2.185-4.386-2.443-8.554,2.917-3.125,2.641-5.615,7.33-7.332C800.4,305.012,802.185,304.243,803.124,303.4Zm-574.192,7.332c6.288,0.032,8.752,1.3,13.439,2.444,11.6,14.733,13.682,36.244-14.66,35.439-1.691-1.351-3.51-1.826-6.109-2.444-3.977-5.66-12.21-14.574-6.108-23.219C218.026,314.838,223.112,315.251,228.932,310.734ZM64.005,311.956h8.552c4.88,7.489,4.929,15.3-8.552,14.664C59.169,319.368,59.414,319.167,64.005,311.956Zm395.826,0c0.209,9.932-1.835,14.246-3.665,20.774,6.485-1.915,12.244,1.9,18.325,3.666-0.084-9.414,2.776-12.066,4.887-18.33C468.854,318.315,465.605,315.722,459.831,311.956ZM354.766,314.4c4.574,10.776-.581,17.135-3.665,25.662h3.665c5.478-3.439,14.463,2.486,18.325,4.889-0.329-11.513,2.188-15.5,6.108-22C367.342,325.269,362.112,319.455,354.766,314.4Zm-228.455,8.554,11,1.222c1.9,2.92,3.571,3.574,4.887,7.332,7.694,10.859-6.566,17.767-17.1,17.109-1.247-.983-0.335-0.434-2.443-1.222C114.669,334.638,117.4,332.015,126.311,322.954Zm637.719,0c13.084,2.17,18.12,9.569,14.66,24.441-8.084,5.824-22.209,11.744-26.877-2.444-3.783-4.666-1.418-9.213,0-14.665l7.33-6.11C761.987,323.937,762.6,323.941,764.03,322.954Zm-106.287,1.222c8.8-.128,12.2,1.977,18.326,3.666,15.077,21.87,4.988,42.967-24.434,35.439a72.986,72.986,0,0,0-8.552-11c-0.555-5.947-2.008-10.315,1.222-14.665C646.533,329.366,652.108,328.758,657.743,324.176Zm-134.385,6.11c0.128,8.8-1.976,12.208-3.665,18.331,8.266-.031,11.816,2.276,17.1,4.888,0.1-8.717,2.915-13.042,6.108-18.331C533.787,335.323,529.1,333.106,523.358,330.286Zm-333.519,4.888c6.987,0.171,9.37,2.2,14.66,3.666,3.1,5.282,5.748,8.627,6.108,17.109-1.35,1.691-1.825,3.511-2.443,6.11l-8.552,7.332c-5.735.5-9.271,1.861-13.439-1.222a12.323,12.323,0,0,1-8.551-8.554c-4.755-5.835-.523-12.375,1.221-18.33C181.954,339.577,187.007,337.524,189.839,335.174Zm230.9,1.222c0.225,8.615-1.164,13.07-3.665,18.331,8.261-.064,11.237,2.044,17.1,3.666-0.03-8.268,2.276-11.819,4.887-17.108C429.569,341.493,426.383,339.313,420.737,336.4Zm299.312,7.333c7.316-.127,10.966,1.136,15.882,2.444a61.957,61.957,0,0,0,7.33,9.776c0.161,4.245.409,9.815-1.221,12.22-1.96,6.368-5.661,7.1-9.774,11-5.735.5-9.271,1.861-13.438-1.222-6.806-1.823-7-5.534-11-9.776C707.428,351.6,712.156,351.1,720.049,343.729Zm105.065,0a24.24,24.24,0,0,1,9.774,2.444c2.571,4.384,3.718,6.808,3.665,14.664-5.021,3.385-5.663,5.941-14.661,6.11-2.685-2.551-4.506-2.1-6.108-6.11-1.513-2.246-1.33-6.97-1.222-11,3.408-2.248,3.452-3.893,8.552-4.888v-1.222Zm-240.672,1.222c1.217,9.589-.8,15.2-4.886,22,11.509-.329,15.5,2.189,21.99,6.11-2.314-11.86,3.5-17.092,8.552-24.44h-1.222C600.809,355.223,590.779,347.3,584.442,344.951ZM86,348.617h9.773c1.57,2.24,2.4,2.091,3.665,4.888,3.562,3.763,1.911,7.805,0,12.22-3.953,2.32-5.322,3.548-12.217,3.666C79.024,361.343,79.712,357.793,86,348.617Zm164.928,0c15.461-.265,17.383,5.873,24.433,13.442,1.162,11.575-.741,22.33-11,25.663-3.258,2.607-8.5,2.59-14.66,2.444-2.115-1.763-4.991-1.969-7.33-3.667-3.18-2.307-4.607-6.958-7.33-9.776C234.566,356.778,240.342,356.73,250.923,348.617Zm233.341,6.11c0.123,7.632-1.4,11.135-3.665,15.886a32.609,32.609,0,0,1,15.882,4.888c-0.03-8.268,2.276-11.819,4.887-17.108C493.224,358.578,489.274,357.115,484.264,354.727Zm-102.621,4.888c0.046,8.472-2.22,12.9-4.887,18.33,8.144-.185,12.094,1.278,17.1,3.666,0.4-7.639,3.193-11.132,4.886-17.108C390.02,364.659,386.657,362.613,381.643,359.615ZM147.08,360.837c4.244-.16,9.812-0.409,12.216,1.222,4.2,1.316,5.959,3.178,7.331,7.332,3.234,4.044,1.795,7.541,1.221,13.442-4.391,3.437-4.587,6.578-12.217,7.333-3.482,2.154-7.02-.178-11-1.222l-6.108-7.333a68.837,68.837,0,0,1,1.221-14.664Zm638.94,2.444,11,2.444a30.5,30.5,0,0,0,4.887,6.11,77.264,77.264,0,0,1,0,13.442c-2.689,2.034-2.475,3.466-6.108,4.889-7.083,6.826-19.757-.111-21.991-6.111-1.8-4.836-.448-6.682,0-12.22,1.854-1.364,2.049-3.619,3.665-4.888C779.832,365.091,783.668,365.064,786.02,363.281ZM679.734,364.5a59.532,59.532,0,0,1,18.325,2.444c8.532,12.468,9.421,14.056,4.887,30.551-7.131,4.63-10.237,7.445-23.212,7.332-4.407-4.229-9.1-8-13.439-12.22-0.761-9.108.4-13.177,2.444-20.775C672.074,369.806,676.681,367.141,679.734,364.5Zm-133.164,6.11c0.185,8.146-1.277,12.1-3.665,17.109,7.638,0.4,11.13,3.193,17.1,4.888-0.156-8.73,1.889-12.093,4.886-17.109C556.426,375.548,552,373.281,546.57,370.613Zm-335.963,2.444c7.205-.094,10.74,1.195,15.882,2.444,4.782,7.065,8.577,9.084,8.552,22-5.1,6.689-14.661,20.854-26.877,12.22-5.519-1.872-7.295-6.208-10.995-9.776-0.474-9.119.413-11.967,2.443-19.553C202.948,378.36,207.554,375.7,210.607,373.057ZM48.123,374.279h7.33c2.379,3.771,3.526,4.192,3.665,11-3.96,2.5-4.925,3.651-12.217,3.667C42.719,382.247,43.022,379.842,48.123,374.279Zm397.047,3.666c-0.032,7.665-2.117,10.293-3.665,15.887,7.059-.032,10.185,1.526,14.661,3.666,0.17-6.99,2.2-9.373,3.665-14.665A34.9,34.9,0,0,1,445.17,377.945Zm-103.843,3.666c0.149,9.122-2.068,13.81-4.886,19.553,8.4-.073,12.294,2.023,18.325,3.666,0.1-7.771,2.378-12,4.887-17.108C350.938,387.62,346.614,384.806,341.327,381.611Zm400.713,2.444c7.655-.148,11.992,1.089,17.1,2.444l6.109,8.555c0.412,5.413,1.736,9.262-1.222,13.442-1.245,3.871-3.087,5.376-6.109,7.332-11.75,9.868-31.877-3.309-26.877-19.552C732.9,390.237,738,387.889,742.04,384.055Zm-631.611,1.222L120.2,386.5c8.589,11.844,10.247,25.454-12.217,24.441a62.316,62.316,0,0,0-7.33-8.554C100.661,390.98,104.81,390.512,110.429,385.277Zm497.225,0c0.458,9.031-.847,14.046-4.886,20.775,11.314-.182,15.462,3.3,21.99,7.332-2.468-11.678,2.512-17.171,7.33-24.44C622.07,392.591,614.459,387.618,607.654,385.277Zm238.229,0h9.773c2.909,4.49,4.746,5.428,4.887,13.443-4,3.863-4.837,6.379-12.217,7.332a23.916,23.916,0,0,0-4.887-2.444C838.38,395.493,840.027,391.353,845.883,385.277ZM505.033,410.94c6.806,0.075,9.024,1.6,14.66,2.444-0.031-7.061,1.527-10.188,3.665-14.664-7.63.123-11.132-1.4-15.882-3.666C507.482,402.37,505.909,405.074,505.033,410.94ZM172.735,397.5l10.995,1.222c2.713,3.443,5.622,3.782,7.33,8.554,2.333,2.9,2.512,6.7,2.444,12.22-5.743,7.163-7.084,12.649-19.547,13.442-1.83-1.312-5.249-1.084-7.33-2.444-3.2-2.092-4.686-7.027-7.331-9.776C158.924,404.308,164.067,404.209,172.735,397.5Zm244.337,22c-0.032-7.061,1.526-10.188,3.665-14.664-7.63.123-11.132-1.4-15.882-3.666,0.123,7.632-1.4,11.135-3.665,15.886C408.5,417.045,411.208,418.618,417.072,419.494ZM299.79,402.386c0.967,12.259-1.949,16.454-7.33,24.44,9.421-3.486,18.253.577,24.434,3.666V429.27c-4.17-6.177,2.435-15.613,4.886-19.552C310.466,409.9,306.318,406.415,299.79,402.386Zm408.042,1.222c7.668,1.209,14.789,3.1,17.1,9.776,5.573,5.563,3.092,14.745,1.222,22-7.382,5-9.592,8.642-23.212,8.554-2.128-2.014-4.8-1.831-7.33-3.666l-6.109-8.555c-0.386-8.754.485-12.038,2.444-19.552a61.945,61.945,0,0,0,9.773-7.332C704.818,404.74,706.264,404.683,707.832,403.608Zm97.735,1.222h11c4.673,5.947,7.5,6.518,7.33,18.33-5.182,5.1-6.319,8.47-17.1,8.554-1.66-1.541-2.161-1.668-4.887-2.444-2.8-4.717-4.724-6.669-4.887-14.664C799.99,411.136,802.529,408.072,805.567,404.83ZM71.335,410.94c12.168-.148,14.853,8.252,11,17.108C66.763,438.222,58.605,422.473,71.335,410.94Zm162.484,0c5.515-.158,10.4.146,13.439,2.444a15.187,15.187,0,0,1,9.773,9.776c10.619,13.06-6.423,24.068-12.217,29.329H232.6c-11.836-10.531-17.485-10.523-12.216-31.773C224.519,417.794,229.689,414.361,233.819,410.94Zm335.963,0c0.064,8.264-2.043,11.24-3.665,17.108,8.266-.03,11.816,2.277,17.1,4.888-0.209-9.5,1.971-12.682,4.886-18.33C579.5,414.832,575.041,413.442,569.782,410.94Zm-101.4,8.554c-0.1,6.419-1.666,9.261-3.665,13.442,6.988,0.171,9.371,2.2,14.661,3.667,0.032-6.29,1.3-8.754,2.443-13.443ZM132.419,423.16l12.217,1.222c1.9,2.92,3.571,3.574,4.887,7.332,3.783,4.666,1.418,9.213,0,14.665l-7.33,6.11c-7.316.126-10.966-1.137-15.882-2.444-2.626-5.22-4.705-7.552-4.887-15.886,3.886-4.235,3.863-8.421,11-9.777V423.16Zm232.12,0c0.134,8.544-1.868,11.529-3.665,17.109,7.63-.123,11.132,1.4,15.882,3.666a32.629,32.629,0,0,1,4.887-15.887C373.377,428.079,369.827,425.772,364.539,423.16Zm401.934,1.222c6.772-.043,9.741,1.247,14.66,2.444,3.906,6.034,6.2,8.561,6.109,19.553-3.256,3.5-3.319,6.7-8.552,8.554-2.9,2.333-6.7,2.513-12.217,2.444-3.482-3.379-7.49-6.5-11-9.776-0.5-5.737-1.86-9.274,1.222-13.442C758.669,428.417,762.656,428,766.473,424.382ZM870.316,425.6a37.189,37.189,0,0,1,8.552,1.222c3.271,5.746,4.127,21.322-8.552,17.109C860.055,440.524,865.817,430.067,870.316,425.6Zm-673.147,9.777c5.539,0.587,8.794,2.411,13.438,3.666,4.038,6.215,7.26,8.588,7.33,19.552-1.8,2.213-2.864,5.377-3.665,8.554-6.363,3.845-9.552,6.176-20.768,6.11-8.01-6.431-13.508-8.255-13.439-23.218,1.755-2.108,1.96-5.017,3.665-7.332l8.552-6.11C195.125,436.364,195.734,436.367,197.169,435.381Zm333.519,0c0.032,7.061-1.526,10.187-3.665,14.664,6.5,0.108,10.1,1.72,14.66,3.666a34.939,34.939,0,0,1,4.887-14.664C538.907,439.015,536.28,436.928,530.688,435.381Zm-101.4,7.332-3.666,13.442c6.418,0.1,9.258,1.667,13.439,3.666,0.171-6.99,2.2-9.373,3.665-14.664C436.439,445.124,433.976,443.855,429.289,442.713Zm-105.065,2.444c0.249,10.526-2.343,13.776-6.109,19.552,9.929-.209,14.242,1.835,20.769,3.666-1.517-6.1,1.964-12.365,3.665-18.33C333.137,450.129,330.486,447.268,324.224,445.157Zm401.934,0,14.66,1.222c5.467,6.938,9.823,8.616,9.773,22-1.35,1.691-1.825,3.511-2.443,6.11a61.844,61.844,0,0,0-9.773,7.333c-10.238,1-20.188-.364-23.212-9.777-2.472-3.082-2.56-7.588-2.444-13.442,2-2.126,1.83-4.814,3.665-7.332C718.463,448.414,723.441,447.436,726.158,445.157Zm105.064,0c6.714,0.256,9.5,1.969,12.217,6.11,3.914,4.777,1.478,9.448,0,14.664-4.43,2.115-6.419,3.508-13.438,3.666-1.66-1.541-2.161-1.668-4.887-2.444C819.233,455.592,822.972,451.855,831.222,445.157Zm-737.9,3.666a47.369,47.369,0,0,1,11,1.222c2.8,4.717,4.724,6.669,4.886,14.664-1.541,1.66-1.668,2.161-2.443,4.888C85.892,477.181,77.294,463.435,93.326,448.823Zm498.447,1.222c1.517,6.1-1.964,12.365-3.665,18.33,9.412-.084,12.063,2.777,18.326,4.888-0.24-10.524,2.461-13.618,6.108-19.552C602.612,453.921,598.3,451.876,591.772,450.045ZM491.594,458.6c-0.17,6.99-2.2,9.373-3.665,14.664,5.985,0.2,11.128,2.2,13.439,1.222,1.779-2.7,2.913-9.143,3.665-12.22C498.616,462.165,495.775,460.6,491.594,458.6Zm-335.963,2.444c6.572-.038,8.888,1.229,13.439,2.444l6.108,7.332c0.5,5.737,1.861,9.274-1.221,13.443-1.97,5.741-5.957,6.162-9.774,9.776-6.772.044-9.74-1.247-14.66-2.444-3.905-6.034-6.2-8.561-6.108-19.553,3.256-3.5,3.318-6.7,8.551-8.554C152.909,462.654,154.693,461.885,155.631,461.043Zm233.342,3.666a34.92,34.92,0,0,1-4.887,14.664c7.663,0.032,10.29,2.119,15.882,3.667-0.031-7.062,1.527-10.188,3.665-14.665C396.645,468.2,394.263,466.172,388.973,464.709Zm296.869,1.222c9.533-.191,13.22,1.887,19.547,3.666,5.95,8.99,8.028,15.181,4.887,28.107-5.793,4.544-16.2,15.257-26.877,7.332a15.186,15.186,0,0,1-9.774-9.776C663.006,482.2,680.049,471.192,685.842,465.931Zm102.622,0c4.006-.142,8.776-0.288,10.995,1.222,10.246,3.109,9.9,12.313,7.33,22-5.461,3.643-7.15,6.089-17.1,6.11-3.5-3.257-6.7-3.32-8.552-8.554C774.239,478.25,783.889,470.46,788.464,465.931ZM55.453,474.485l7.33,1.222c6.283,9.551,2.222,18.965-11,15.887C47.205,482.569,48.926,480.7,55.453,474.485Zm161.263,0c9.1-.161,12.2,1.94,18.325,3.666l6.108,8.555c0.386,8.754-.484,12.038-2.443,19.552a61.953,61.953,0,0,0-9.774,7.332c-6.116.374-10.239,1.878-14.66-1.222-12.582-3.582-13.06-16.666-9.773-29.328A127.362,127.362,0,0,0,216.716,474.485Zm337.184,0a32.64,32.64,0,0,1-4.886,15.887c8.265-.031,11.815,2.276,17.1,4.888-0.185-8.146,1.278-12.1,3.665-17.109C562.152,478.274,558.65,476.753,553.9,474.485Zm-102.621,7.333c-0.252,5.8-2.464,10.856-1.222,13.442l12.217,3.666c0.1-6.419,1.666-9.261,3.665-13.442C458.951,485.313,456.569,483.281,451.279,481.818Zm-103.843,3.666c0.208,9.5-1.971,12.682-4.887,18.33,8.612-.226,13.066,1.164,18.325,3.666-0.063-8.264,2.044-11.24,3.665-17.108C356.274,490.4,352.724,488.1,347.436,485.484Zm404.377,0c4.035,0.135,7.425.659,9.774,2.444,5.739,1.97,6.16,5.958,9.773,9.776,0.474,11.4-1.634,18.116-9.773,20.774-4.2,3.39-8.612,1.826-14.661,1.222-2.712-3.443-5.622-3.782-7.33-8.554-2.332-2.9-2.512-6.705-2.443-12.22,2.259-2.7,3.257-7.736,6.108-9.776C745.859,487.291,749.459,487.361,751.813,485.484Zm-635.276,1.222c6.14,0.044,7.846,1.276,12.217,2.444,2.8,4.717,4.724,6.669,4.887,14.664-2.975,3.47-5.513,6.534-8.552,9.776a61.2,61.2,0,0,1-13.438-1.222,30.5,30.5,0,0,0-4.887-6.11c-0.515-10.643,1.095-16.881,9.773-18.33v-1.222Zm736.676,0a37.142,37.142,0,0,1,8.552,1.222c5.854,8.236,6.846,19.581-8.552,19.552-5.58-5.452-8.528-8.339-4.887-17.108A22.069,22.069,0,0,0,853.213,486.706Zm-239.45,1.222a26.286,26.286,0,0,1,1.221,8.554c-2.464,3.473-4.118,8.8-6.108,12.22,11.315-.182,15.463,3.3,21.99,7.332-0.967-12.259,1.949-16.453,7.33-24.44C628.179,495.241,620.568,490.268,613.763,487.928Zm-100.178,11c-0.075,6.808-1.6,9.026-2.444,14.664,7.059-.031,10.185,1.527,14.661,3.666-0.123-7.632,1.4-11.135,3.665-15.886h-8.552C518.861,499.727,517.075,499.369,513.585,498.926ZM176.4,500.148c7.655-.149,11.993,1.089,17.1,2.444,3.673,6.081,6.121,8.938,6.108,19.552-6.53,8.188-7.573,12.531-23.212,12.221-3.805-3.71-7.286-7.194-11-11C164.534,509.76,168.49,507.507,176.4,500.148Zm249.223,7.332c-7.059.032-10.184-1.527-14.66-3.666,0.123,7.632-1.4,11.135-3.665,15.886,7.63-.123,11.132,1.4,15.882,3.666C423.175,516.05,424.748,513.346,425.623,507.48ZM305.9,505.036c2.469,11.678-2.511,17.171-7.33,24.441,10.018-3.648,17.629,1.325,24.434,3.666-0.458-9.031.848-14.046,4.887-20.775C316.574,512.551,312.426,509.065,305.9,505.036Zm408.043,1.222c8.847,1.483,16.8,4.6,18.325,13.442,2.82,3.594,2.78,9.845,0,13.443-2.318,9.245-9.965,12.564-21.99,12.22-8.927-6.885-14.883-7.858-14.66-24.441,2.024-2.147,1.844-4.746,3.665-7.332l8.551-6.11C710.926,507.39,712.373,507.333,713.941,506.258Zm97.735,1.222h11c2.033,2.69,3.464,2.475,4.886,6.11,2.3,2.491,2.444,4.687,2.444,9.776-2.375,2.838-2.939,5.184-6.109,7.333-10.873,9.26-20.279-3.235-19.547-15.887,0.983-1.248.434-.335,1.222-2.444A30.53,30.53,0,0,0,811.676,507.48ZM78.665,512.368a26.442,26.442,0,0,1,8.552,2.444C93.786,525,90.509,533.9,75,533.143c-2.909-4.49-4.746-5.428-4.887-13.443C72.907,517.13,75.712,514.939,78.665,512.368Zm160.041,1.222,15.882,1.222c5.749,7.316,10.928,9.357,11,23.219-1.8,2.213-2.864,5.377-3.665,8.554a61.953,61.953,0,0,0-9.774,7.332,65.673,65.673,0,0,1-19.547-2.444c-4.719-7.055-8.565-9.257-8.551-22,1.8-2.214,2.864-5.378,3.665-8.555C231.047,518.893,235.653,516.229,238.706,513.59Zm337.185,0c-0.1,7.771-2.378,12-4.887,17.109,8.714,0.1,13.038,2.915,18.325,6.11-0.149-9.121,2.068-13.81,4.887-19.553C585.417,517.384,582.011,515.28,575.891,513.59Zm-101.4,7.332c-0.108,6.5-1.719,10.1-3.665,14.665a34.9,34.9,0,0,1,14.66,4.888c-0.022-7.176,1.581-11,3.665-15.887C482.092,524.62,478.966,523.062,474.491,520.922ZM137.306,525.81c4.007-.142,8.777-0.288,10.995,1.222,4.705,1.588,5.477,4.375,8.552,7.333,0.188,6.05.148,5.679,0,12.22-4.391,3.437-4.587,6.578-12.217,7.332-3.482,2.154-7.02-.177-11-1.222a30.5,30.5,0,0,0-4.887-6.11,77.363,77.363,0,0,1,0-13.442A81.725,81.725,0,0,0,137.306,525.81Zm233.342,0c0.155,8.73-1.889,12.093-4.887,17.109,8.469-.047,12.9,2.22,18.325,4.888-0.185-8.146,1.278-12.1,3.665-17.108C380.266,530.32,376.242,527.62,370.648,525.81Zm404.377,1.222,11,2.445,6.109,7.332a68.766,68.766,0,0,1-1.222,14.664l-7.33,6.11a68.72,68.72,0,0,1-14.66-1.222c-1.9-2.92-3.571-3.574-4.887-7.332-3.783-4.666-1.418-9.213,0-14.664C767.292,532.322,771.9,529.641,775.025,527.032ZM669.96,528.255l14.66,1.222a141.588,141.588,0,0,0,11,12.22c0.545,12.3-1.024,21.506-9.774,24.44-3.559,3.363-8.681,3.8-15.882,3.666-2.155-2.033-4.715-1.852-7.33-3.666-3.2-2.217-4.63-6.99-7.33-9.776C653.823,539.1,659.467,536.356,669.96,528.255ZM875.2,529.477h8.552c2.616,4.164,5.064,7.4,1.222,12.22-2.49,2.3-4.686,2.444-9.774,2.444C871.289,537.847,871.36,535.546,875.2,529.477ZM536.8,536.809c-0.378,7.487-3.078,11.512-4.887,17.108,8.727-.156,12.09,1.89,17.1,4.888-0.047-8.472,2.219-12.9,4.886-18.33C545.756,540.66,541.807,539.2,536.8,536.809Zm-333.52,1.222c5.539,0.587,8.794,2.411,13.439,3.666q3.053,4.277,6.108,8.554c0.4,16.565-4.324,17.074-12.217,24.441h-11c-4.236-4.122-8.1-7.985-12.217-12.221-0.16-4.245-.408-9.815,1.222-12.22,1.959-6.368,5.661-7.1,9.773-11C201.234,539.014,201.842,539.017,203.277,538.031Zm230.9,4.888c0.031,8.268-2.275,11.819-4.886,17.108,8.143-.185,12.093,1.278,17.1,3.666-0.123-7.632,1.4-11.135,3.665-15.886A32.613,32.613,0,0,1,434.175,542.919ZM329.11,545.363c2.314,11.86-3.5,17.092-8.551,24.44h1.221c8.068-6.606,18.1,1.314,24.434,3.666-1.216-9.589.8-15.2,4.887-22C339.592,551.8,335.6,549.284,329.11,545.363Zm406.821,2.444c3.347,0.3,6.492.882,8.552,2.444,4.788,1.4,7.088,3.817,8.552,8.554,4.755,5.835.523,12.375-1.222,18.331-5.782,3.494-8.373,6.044-18.325,6.11-3.994-3.171-7.8-3.1-9.774-8.554-9.622-9.9,1.631-20.131,7.33-25.663C733.888,548.79,734.5,548.794,735.931,547.807Zm100.178,1.222c3.323-.009,5.617.048,7.33,1.222,5.263,1.683,6.656,4.792,7.33,11-4.74,5.929-4.391,8.787-15.881,8.554C827.458,559.34,826.844,558.507,836.109,549.029ZM99.434,551.473c7.268-.2,11.481.922,13.438,6.11,1.513,2.246,1.331,6.97,1.222,11-4.572,3.035-5.786,5.536-13.438,6.111a23.919,23.919,0,0,0-4.887-2.445c-2.571-4.384-3.719-6.808-3.665-14.664A56.34,56.34,0,0,0,99.434,551.473ZM261.918,552.7c7.6-.127,11.743,1.145,17.1,2.444a73.05,73.05,0,0,0,8.552,11c0.555,5.947,2.008,10.315-1.221,14.665-2.431,9.659-10.592,13.775-23.212,13.442-2.213-1.8-5.376-2.865-8.552-3.666-6.049-9.048-12.2-25.828,0-34.217C257.2,554.564,259.751,554.673,261.918,552.7Zm234.563,7.332c0.031,8.268-2.275,11.819-4.887,17.109,9.493-.209,12.679,1.971,18.326,4.888-0.226-8.615,1.163-13.07,3.665-18.331C505.323,563.757,502.348,561.649,496.481,560.027Zm-332.3,3.666c4.282,0.494,6,1.536,9.774,2.444,1.9,2.92,3.57,3.574,4.886,7.332,3.784,4.667,1.418,9.213,0,14.665l-7.33,6.11c-5.531.4-8.219,1.7-12.217-1.222-4.7-1.587-5.476-4.374-8.551-7.332a68.775,68.775,0,0,1,1.221-14.665l7.33-6.11C162.14,564.677,162.749,564.68,164.183,563.693Zm229.677,1.222c-0.1,8.717-2.915,13.042-6.109,18.331,9.119-.149,13.806,2.068,19.547,4.888-0.128-8.8,1.976-12.208,3.665-18.331C403.194,569.7,398.963,567.425,393.86,564.915ZM693.172,569.8c7.2-.094,10.74,1.2,15.882,2.444,3.977,5.66,12.21,14.574,6.109,23.219-1.233,4.424-3.018,7.065-7.331,8.554-5.35,5.193-12.7,2.989-19.547,1.222-6.048-7.836-15.518-22.209-2.443-31.773C688.157,571.776,691.044,571.505,693.172,569.8Zm101.4,0a61.268,61.268,0,0,1,13.439,1.222c6.732,10.409,6.515,24.7-11,24.441-3.789-3.106-6.709-3.234-8.551-8.554-1.282-1.893-1.26-4.993-1.222-8.554A87.892,87.892,0,0,0,794.572,569.8Zm-237.007,3.666c0.33,11.513-2.188,15.5-6.108,22,11.857-2.315,17.088,3.5,24.434,8.554-4.574-10.776.58-17.135,3.665-25.662h-3.665C570.413,581.8,561.428,575.872,557.565,573.469ZM221.6,578.358c4.486-.172,10.843-0.532,13.439,1.222,8.843,2.59,15.658,17.78,8.552,28.106-7.307,10.618-27.872,8.581-31.764-3.666-4.265-5.19-1.5-12.557,0-18.33A61.9,61.9,0,0,0,221.6,578.358Zm234.564,3.666c0.083,9.414-2.777,12.066-4.887,18.33,10.521-.24,13.615,2.462,19.547,6.11-0.21-9.932,1.834-14.246,3.665-20.774C468.005,587.605,462.246,583.785,456.166,582.024Zm-334.742,8.554H131.2c2.033,2.69,3.464,2.475,4.886,6.11,1.858,2.315,2.186,4.386,2.444,8.554-2.918,3.125-2.641,5.616-7.33,7.332-2.054,1.643-3.841,2-7.33,2.444-3.01-2.428-5.5-2.262-7.331-6.11C109.6,601.626,117.513,594.475,121.424,590.578Zm634.054,0c6.958-.092,9.93,1.183,14.66,2.444a30.5,30.5,0,0,0,4.887,6.11A68.76,68.76,0,0,1,773.8,613.8c-5.754,3.729-7.94,6.142-18.325,6.11-3.077-3.222-6.554-6.695-9.773-9.776v-9.776C748.926,597.276,752.4,593.8,755.478,590.578ZM652.857,591.8c12.454-.51,20.316,2.173,23.212,11,4.4,5.349,1.525,13.665,0,19.553a72.91,72.91,0,0,0-11,8.554c-19.86.824-34.984-14.687-23.212-31.773C644.2,595.744,649.591,594.331,652.857,591.8Zm205.243,0h8.551c4.88,7.489,4.93,15.3-8.551,14.664-2.013-3.452-3.19-4.184-3.666-9.776A23.324,23.324,0,0,0,858.1,591.8Zm-574.192,1.222c13.022-.543,21.4,1.767,24.434,11,2.606,3.259,2.59,8.5,2.443,14.664-7.255,9.082-8.392,14.958-25.655,14.665-1.691-1.351-3.51-1.826-6.109-2.444a73.037,73.037,0,0,0-8.551-11c-0.5-7.475.247-9.86,1.221-17.108,4.433-3.5,5.117-7.265,12.217-8.554v-1.222Zm234.563,4.888c0.055,10.581-3.5,14.567-7.33,20.774,11.675-2.468,17.166,2.513,24.434,7.333v-1.222c-5.315-7.77,1.918-18.266,3.665-23.219C530.592,601.956,526.122,599.962,518.471,597.91ZM415.85,602.8c0.182,11.318-3.3,15.467-7.33,22,12.256-.968,16.449,1.949,24.434,7.332v-1.222c-5.315-7.77,1.917-18.266,3.665-23.219C428.447,610.622,421.284,606.124,415.85,602.8ZM182.508,604.02c4.244-.16,9.813-0.408,12.217,1.222,4.705,1.587,5.477,4.374,8.552,7.332a77.276,77.276,0,0,1,0,13.443c-3.083,2.59-5.557,7.245-9.773,8.554-14.424,4.475-21.05-7.959-20.769-19.553C176.1,611.091,179.057,607.69,182.508,604.02Zm535.1,7.332,11,1.222a83.578,83.578,0,0,0,8.552,9.777c0.621,15.98-4.91,22.519-20.769,22C698.771,630.32,700.861,624.143,717.606,611.352Zm103.843,0c5.3,0.537,8.136,1.774,9.773,6.11,1.808,2.329,2.261,4.056,1.222,6.111a15.462,15.462,0,0,1-1.222,4.888c-3.952,2.32-5.322,3.548-12.216,3.666-2.033-2.691-3.465-2.476-4.887-6.11-4.42-6.123,1.643-12.637,7.33-13.443v-1.222ZM613.763,613.8l14.66,1.222c6.257,7.873,11.138,9.015,11,24.441-1.35,1.691-1.825,3.511-2.443,6.11a72.975,72.975,0,0,0-11,8.554c-7.473.5-9.858-.248-17.1-1.222-6.294-7.979-10-9.865-9.773-25.662,3.077-3.176,4.86-8.526,8.551-11C609.632,614.916,612.1,615.147,613.763,613.8Zm-366.5,3.666c6.288,0.033,8.751,1.3,13.438,2.444,10.342,14.416,13.113,34.791-14.66,34.217-7.817-7.07-13.606-7.432-13.439-23.218,2.016-2.125,2.673-6.688,4.887-8.554C240.224,620.041,244.514,619.679,247.258,617.462ZM144.636,629.683c3.547-.074,6.681-0.06,8.552,1.222,3.984,1.267,4.786,2.18,6.108,6.11,2.865,3.719,1.676,5.4,1.222,11-5.31,3.581-6.158,6.078-15.882,6.11C133.618,643.373,133.937,640.414,144.636,629.683Zm166.149,2.444c9.276,0.269,17.164,3.722,19.547,11,2.739,3.434,2.609,9.428,2.444,15.886-3.9,4.184-4.839,8.859-11,11-5.347,4.4-13.661,1.526-19.547,0a73.037,73.037,0,0,0-8.551-11c-0.149-7.977,1.095-12.748,2.443-18.33a61.9,61.9,0,0,0,9.773-7.332C308.742,633.11,309.351,633.113,310.785,632.127Zm471.57,0c5.127,0.989,8.5,2.481,11,6.11,2.034,2.528,2.334,5.078,2.444,9.776-2.918,3.125-2.641,5.615-7.33,7.332-8.192,5.9-21.034-4.088-17.1-14.664C773.14,635.89,778.268,634.76,782.355,632.127ZM677.29,633.349l12.217,1.222c3.8,4.78,7.729,5.149,8.552,13.442,2.992,4.629-1.125,10.23-2.443,14.664-5.28,3.105-8.625,5.75-17.1,6.111-2.213-1.8-5.376-2.865-8.552-3.667-3.494-5.783-6.042-8.375-6.108-18.33,1.35-1.691,1.825-3.511,2.443-6.11C669.558,638.638,674.166,635.957,677.29,633.349Zm-100.178,2.444c15.384,0.58,23.692,8.947,23.212,25.662-1.8,2.214-2.864,5.378-3.665,8.555C574.8,685.091,553.7,675,561.23,645.569a73.033,73.033,0,0,0,11-8.554C575.069,636.776,575.678,636.779,577.112,635.793Zm-370.17,7.332c9.237-.242,13.626,1.975,17.1,7.332,8.743,10.342-3.132,28.6-18.326,23.219-7.666-2.716-13.538-15.39-7.33-24.441Zm166.149,4.888c9.9,0.315,18.241,4.489,20.769,12.22,2.606,3.259,2.59,8.5,2.443,14.665-1.762,2.115-1.968,4.992-3.665,7.332-2.307,3.181-6.957,4.608-9.773,7.332-12.3.546-21.5-1.024-24.434-9.776-3.362-3.561-3.793-8.684-3.665-15.887,2.032-2.156,1.852-4.716,3.665-7.332,2.217-3.2,6.989-4.631,9.773-7.332C371.048,649,371.657,649,373.091,648.013Zm366.505,6.11c8.54-.318,13.771,1.177,15.882,7.332,3.783,4.666,1.418,9.213,0,14.665-5,2.972-7.236,4.837-15.882,4.888-3.124-2.919-5.614-2.642-7.33-7.332-3.783-4.666-1.418-9.213,0-14.665A35.864,35.864,0,0,0,739.6,654.123Zm-101.4,1.222c6.288,0.033,8.752,1.3,13.439,2.444,4.783,6.444,8.507,8.781,8.552,20.775-7.068,7.819-7.43,13.61-23.212,13.442-2.044-1.979-4.037-2.809-7.33-3.666-4.581-8.7-6.354-13.264-3.665-24.441A127.034,127.034,0,0,0,638.2,655.345Zm-368.948,2.444c6.772-.043,9.74,1.247,14.66,2.444,1.9,2.92,3.571,3.574,4.887,7.332,4.265,5.191,1.5,12.557,0,18.331-5.885,3.823-8.15,7.133-18.325,7.332-2.213-1.8-5.376-2.865-8.552-3.666-4.433-7.406-5.74-11.257-4.887-22,3.443-2.713,3.782-5.623,8.552-7.332C266.525,659.4,268.309,658.631,269.248,657.789ZM536.8,659.011c7.662,0.032,10.29,2.119,15.882,3.666a61.858,61.858,0,0,0,7.33,9.777,65.733,65.733,0,0,1-2.444,19.552c-7.053,4.721-9.254,8.568-21.99,8.554-2.213-1.8-5.376-2.865-8.552-3.666-4.628-7.133-7.443-10.24-7.33-23.218,2.013-2.129,1.83-4.8,3.665-7.333l8.552-6.11C534.753,660,535.362,660,536.8,659.011Zm-103.843,6.11c5.8-.206,10.425,0,13.438,2.444,7.272,2.3,7.74,7.448,12.217,12.221v12.22c-10.528,11.839-10.52,17.49-31.764,12.22-4.543-5.794-15.253-16.209-7.33-26.884C421.976,670.139,427.629,669.328,432.954,665.121ZM166.627,670.01h11c7.887,11.146,8.455,13.329-1.222,23.218l-12.217-1.222C158.127,682.389,159.274,677.557,166.627,670.01Zm163.7,3.666c11.7-.51,19.246,1.433,21.99,9.776,2.607,3.259,2.591,8.5,2.444,14.664-4.12,4.237-7.983,8.1-12.217,12.22-9.467.945-19.109,0.294-21.99-8.554-2.98-3.148-3.653-7.172-3.665-13.442,2.2-2.766,2.591-7.01,4.886-9.776Zm368.949,2.444c6.958-.092,9.93,1.183,14.66,2.444,5.077,7.734,7.232,20.538-2.444,25.662-12.527,6.634-22.3-5.482-21.99-17.108,1.7-2.033,1.913-5.221,3.665-7.332C694.5,678.189,697.772,677.6,699.281,676.12Zm102.621,0a47.364,47.364,0,0,1,11,1.222c2.557,8.9,3.025,15.843-9.773,15.886-1.31-1.453-2.448-2.013-3.665-3.666-1.642-2.054-2-3.841-2.444-7.332A32.166,32.166,0,0,0,801.9,676.12Zm-205.243,2.444c25.985-1.315,32.777,28.021,13.439,34.216-2.9,2.334-6.7,2.513-12.217,2.445-4.415-3.512-8.879-3.736-11-9.777-2.811-3.075-2.636-8.457-2.444-14.664C588.555,686,592.211,682.879,596.659,678.564Zm-97.734,3.666c12.318,2.217,14.07,6.295,20.768,13.442,0.374,6.119,1.877,10.242-1.222,14.664-3.581,12.586-16.661,13.064-29.32,9.777-5-7.384-8.64-9.6-8.552-23.219,2.013-2.128,1.831-4.8,3.665-7.332l8.552-6.11C495.91,683.362,497.356,683.305,498.925,682.23Zm-268.771,1.222c6.571-.038,8.888,1.229,13.439,2.444a35.869,35.869,0,0,0,4.886,7.332,61.3,61.3,0,0,1-1.221,13.442c-5.755,3.729-7.941,6.142-18.326,6.11a77.827,77.827,0,0,0-7.33-6.11,29.033,29.033,0,0,1-2.443-12.22C223.059,690.415,225.823,687.182,230.154,683.452Zm163.706,6.11c8.638-.116,11.187,2,17.1,3.666l6.109,8.554c0.291,7.938-.255,9.671-1.222,17.109-4.178,2.84-4.925,6.12-11,7.332-3.593,2.82-9.842,2.781-13.439,0-9.243-2.319-12.56-9.968-12.217-22,1.351-1.691,1.825-3.511,2.444-6.11A127.349,127.349,0,0,0,393.86,689.562Zm368.948,7.332c3.323-.008,5.617.048,7.33,1.222,7.715,2.293,7.787,9.355,4.887,15.886C758.984,724.584,751.008,708.68,762.808,696.894Zm-469.126,1.222c4.034,0.135,7.425.66,9.773,2.444,4.2,1.317,5.959,3.178,7.33,7.332,2.188,2.721,2.44,5.863,2.444,11-1.711,2.042-1.916,5.192-3.665,7.332-1.65,2.018-5.461,2.969-7.331,4.888-15.976.621-22.513-4.911-21.99-20.775C284.889,704.916,288.086,702.652,293.682,698.116Zm366.505,0c3.774-.115,7.733-0.172,9.773,1.222,5.508,1.754,6.27,5.087,9.774,8.554a61.233,61.233,0,0,1-1.222,13.443c-6.04,4.107-7.291,7.3-18.325,7.332-3.5-3.257-6.7-3.32-8.552-8.554-3.965-4.85-1.449-10.332,0-15.887Zm-103.843,3.666L572.226,703c4.878,7.186,8.641,8.733,8.551,22-4.12,4.237-7.982,8.1-12.217,12.22-4.243.16-9.812,0.409-12.216-1.222-6.366-1.96-7.1-5.663-11-9.776-0.5-5.737-1.86-9.274,1.222-13.443C548.393,705.973,552.1,705.777,556.344,701.782ZM456.166,706.67c8.638-.115,11.187,2,17.1,3.666,3.843,6.366,6.174,9.555,6.109,20.775-9.151,11.688-10.624,15.683-29.321,11a61.911,61.911,0,0,0-7.33-9.776c-1-10.24.363-20.193,9.774-23.219C453.443,708.281,455.227,707.512,456.166,706.67ZM193.5,709.114c5.54,1.016,9.247,2.294,11,7.333,1.4,2.064,1.3,5.983,1.221,9.776-5.194,3.914-5.77,6.2-15.881,6.11-2.317-2.482-3.51-2.283-4.887-6.11-2.865-3.719-1.675-5.4-1.222-11,3.776-2.514,3.575-4.229,9.774-4.889v-1.222ZM355.988,714c5.731,0.144,7.785,1.365,12.216,2.445a62.375,62.375,0,0,0,7.33,8.554c0.5,5.737,1.861,9.274-1.221,13.442-1.4,4.79-3.816,7.09-8.552,8.554-5.833,4.757-12.372.523-18.325-1.222-3.494-5.783-6.043-8.375-6.109-18.33,3.17-4,3.1-7.8,8.552-9.776C351.518,716.164,354.256,715.439,355.988,714Zm366.505,4.889c21.949-1.343,20.958,24.717,0,22-2.317-2.482-3.509-2.283-4.887-6.11C712.6,728.38,718.408,723.038,722.493,718.891Zm-98.957,1.222,8.552,1.222c2.59,3.08,7.248,5.56,8.552,9.776,4.395,14.211-8,21.06-19.547,20.774-3.482-3.378-7.49-6.5-11-9.776a68.831,68.831,0,0,1,1.221-14.664l7.331-6.11C621.493,721.1,622.1,721.1,623.536,720.113Zm-368.948,3.666,11,2.444c2.972,5,4.836,7.238,4.887,15.886-2.918,3.125-2.641,5.615-7.33,7.332-4.665,3.785-9.211,1.418-14.661,0-2.971-5-4.836-7.238-4.886-15.886,2.917-3.125,2.641-5.615,7.33-7.332C251.865,725.389,253.649,724.62,254.588,723.779ZM517.25,725l14.66,1.222A83.394,83.394,0,0,0,540.462,736c0.148,7.657-1.089,12-2.444,17.108-5.491,3.755-14.133,10.383-21.99,4.888-3.87-1.245-5.374-3.087-7.33-6.11C499.3,740.447,511.905,729.887,517.25,725Zm-100.178,6.11c6.771-.044,9.74,1.246,14.66,2.444,2.795,4.3,5.408,5.407,6.108,12.22,1.753,2.652.734,7.3-1.221,9.776-1.245,3.871-3.087,5.376-6.109,7.333-4.192,3.435-12.665,2.491-18.325,1.222-2.207-3.322-4.614-4.331-6.108-8.555-4.124-5.023-1.477-11.447,0-17.108C409.339,736.4,413.947,733.719,417.072,731.111ZM314.45,739.665c3.775-.115,7.734-0.172,9.774,1.222,5.508,1.754,6.27,5.087,9.773,8.554v9.776c-6.52,7.241-9.32,11.616-23.212,8.555-3.728-5.756-6.139-7.943-6.108-18.331C307.9,746.363,311.371,742.886,314.45,739.665ZM683.4,740.887a47.418,47.418,0,0,1,11,1.222c3.767,5.655,5.563,9.45,3.665,18.33-4.415,2.619-6.182,4.564-13.439,4.889-3.124-2.919-5.613-2.642-7.33-7.333C671.936,750.3,680.12,744.153,683.4,740.887Zm-100.178,2.444,11,2.444,6.108,7.332c0.4,5.533,1.7,8.221-1.221,12.221-1.587,4.705-4.373,5.478-7.331,8.554a68.726,68.726,0,0,1-14.66-1.222C565.8,756.4,569.455,753.941,583.221,743.331Zm-101.4,4.888c3.347,0.3,6.492.883,8.552,2.444,5.739,1.97,6.16,5.958,9.773,9.776,0.044,6.774-1.246,9.744-2.443,14.665-6.032,3.906-8.558,6.2-19.547,6.11-3.5-3.257-6.7-3.319-8.552-8.554-2.333-2.9-2.512-6.706-2.443-12.221,3.377-3.483,6.493-7.491,9.773-11C479.778,749.2,480.386,749.206,481.821,748.219ZM213.05,750.663a47.421,47.421,0,0,1,11,1.222c1.174,2.158,1.536,2.054,2.443,4.888,5.9,8.089-6.442,18.267-14.66,13.443C203.174,765.135,208.229,755.2,213.05,750.663ZM379.2,755.551l11,2.444c1.9,2.92,3.57,3.574,4.886,7.333,3.784,4.666,1.418,9.212,0,14.664l-7.33,6.11a68.726,68.726,0,0,1-14.66-1.222l-6.108-7.332a68.76,68.76,0,0,1,1.221-14.664C371.467,760.841,376.075,758.16,379.2,755.551Zm267.549,7.333c6.474,1.123,10.317,2.767,12.217,8.554,1.282,1.893,1.259,4.992,1.222,8.554l-6.109,7.332c-8.748,4.485-22.591-4.2-18.325-15.886C637.468,766.742,642.993,765.633,646.748,762.884Zm-371.392,2.444c3.547-.074,6.681-0.06,8.552,1.222,4.945,1.5,6.863,3.61,7.33,9.776,2.808,7.264-5.259,13.6-14.66,13.442-3.124-2.918-5.614-2.642-7.33-7.332C263.893,774.737,272.078,768.594,275.356,765.328Zm269.992,1.222c7.888,2.567,13.9,3.523,14.661,13.442,1.463,2.583.38,4.193,0,8.554-4.392,3.437-4.587,6.578-12.217,7.332-3.053,1.723-5.88-.219-9.774-1.222l-6.108-7.332a61.229,61.229,0,0,1,1.222-13.442l7.33-6.11C543.3,767.533,543.914,767.536,545.348,766.55Zm-103.843,6.11,11,2.444q3.053,3.666,6.108,7.332c0.581,13.945-4.04,20.679-17.1,20.774-1.69-1.35-3.51-1.825-6.108-2.444-3.643-5.462-6.088-7.152-6.108-17.108,3.256-3.5,3.318-6.705,8.551-8.554C438.783,774.27,440.567,773.5,441.505,772.66Zm-103.843,8.554c6.571-.038,8.888,1.229,13.439,2.444,1.174,2.158,1.536,2.053,2.443,4.888,6.641,9.052-4.382,22.7-15.882,18.33C322.81,801.226,330.41,788.065,337.662,781.214ZM606.433,786.1c6.607,0.245,10.453,2.161,12.217,7.332,1.642,2.054,2,3.842,2.443,7.332-3.1,3.791-3.233,6.711-8.552,8.555-3.128,2.146-7.565.783-11,0-3.228-4.984-4.949-6.7-4.887-15.887,2.69-2.033,2.475-3.465,6.109-4.888C603.71,787.713,605.494,786.944,606.433,786.1ZM238.706,790.99c4.773,0.5,6.837,1.279,8.552,4.888,2.146,3.129.783,7.568,0,11l-3.665,1.223c-7.1,4.93-12.393-3.523-12.217-11C233.719,795,236.255,793.141,238.706,790.99Zm263.884,0,11,1.222c3.936,5.848,6.229,7.365,6.108,18.331-5.945,4.673-6.516,7.5-18.325,7.332C489.1,805.815,490.884,801.782,502.59,790.99Zm-103.844,7.332a61.261,61.261,0,0,1,13.439,1.222c3.374,5.214,5,7.429,4.887,17.109-2.69,2.033-2.475,3.465-6.109,4.888-2.49,2.3-4.685,2.444-9.773,2.444-2.837-2.376-5.183-2.94-7.33-6.11-2.189-2.721-2.44-5.863-2.444-11A87.763,87.763,0,0,0,398.746,798.322Zm-100.178,8.554c3.323-.008,5.617.048,7.33,1.223,7.715,2.293,7.788,9.354,4.887,15.886C295.269,832.4,286.6,818.939,298.568,806.876Zm265.106,3.667c3.774-.116,7.733-0.172,9.773,1.222,3.28,1.089,3.164,1.256,4.887,3.666,1.858,2.315,2.185,4.386,2.443,8.554-2.917,3.125-2.641,5.615-7.33,7.332-9.086,6.5-16.239-4.584-15.882-13.442A60.29,60.29,0,0,0,563.674,810.543ZM463.5,815.431c3.322-.009,5.616.047,7.33,1.222,9.987,2.83,10.442,15.673,2.443,20.774-4.775,3.915-9.445,1.478-14.66,0-2.114-4.431-3.507-6.421-3.665-13.442C457.807,821.1,460.607,818.3,463.5,815.431Zm-101.4,7.332a24.247,24.247,0,0,1,9.773,2.444c2.32,3.954,3.548,5.324,3.665,12.22-4,3.863-4.836,6.38-12.216,7.332-5.927-4.741-8.785-4.393-8.552-15.886Zm163.706,11a24.91,24.91,0,0,1,11,2.444c4.931,9.791,2.124,18.7-11,18.33-5.58-5.451-8.529-8.339-4.887-17.108A22.038,22.038,0,0,0,525.8,833.761Zm-101.4,6.11a24.263,24.263,0,0,1,9.773,2.444c4,5.928,4.022,22.934-9.773,18.331C412.274,856.6,418.946,845.151,424.4,839.871ZM323,848.425l7.33,1.222c1.761,3.263,2.436,5.159,2.444,11-7.487,4.881-15.292,4.93-14.661-8.555A22.007,22.007,0,0,0,323,848.425ZM486.708,858.2a37.125,37.125,0,0,1,8.551,1.222c1.175,2.158,1.536,2.053,2.444,4.888,1.849,2.816.762,6.184-1.222,8.554C487.332,882.723,474.838,869.871,486.708,858.2Zm-101.4,7.332h6.108c2.5,3.961,3.65,4.926,3.665,12.22-4.163,2.617-7.4,5.066-12.216,1.222-2.3-2.491-2.444-4.687-2.444-9.776A22.038,22.038,0,0,0,385.308,865.534Z"/>
  <path id="形状_1" data-name="形状 1" class="cls-1" d="M949,683l258,21"/>
</svg>
